# xmcd
#
# Track frame offsets:
#	150
#	19280
#	55579
#	69356
#	103036
#	120344
#	145393
#	165227
#	192324
#	207439
#	234104
#	264739
#	299475
#
# Disc length: 4470 seconds
#
# Revision: 1
# Processed by: cddbd v1.5.2PL0 Copyright (c) Steve Scherf et al.
# Submitted via: audiograbber 1.83.01
#
DISCID=b711740d
DTITLE=Grateful Dead - 77-10-12 Manor Downs, Austin TX
DYEAR=1900
DGENRE=
TTITLE0=Promised Land
TTITLE1=They Love Each Other
TTITLE2=Me and My Uncle
TTITLE3=Candyman
TTITLE4=Passenger
TTITLE5=Brown Eyed Women
TTITLE6=El Paso
TTITLE7=Friend Of The Devil
TTITLE8=Lazy Lightning
TTITLE9=Supplication
TTITLE10=Deal
TTITLE11=Samson and Delilah
TTITLE12=Tennessee Jed
EXTD=
EXTT0=
EXTT1=
EXTT2=
EXTT3=
EXTT4=
EXTT5=
EXTT6=
EXTT7=
EXTT8=
EXTT9=
EXTT10=
EXTT11=
EXTT12=
PLAYORDER=
